<svg width="24" height="24" viewBox="0 0 24 24" fill="none" xmlns="http://www.w3.org/2000/svg">
<path fill-rule="evenodd" clip-rule="evenodd" d="M10.6259 4.24446C11.0589 4.08376 11.5261 4 12 4C12.4739 4 12.9411 4.08376 13.3741 4.24446C13.807 4.40515 14.1937 4.63827 14.5146 4.92584C14.8353 5.21323 15.0831 5.5484 15.2497 5.90896C15.2687 5.9499 15.2865 5.99113 15.3033 6.03259H8.69669C8.71348 5.99113 8.73134 5.9499 8.75026 5.90896C8.91692 5.5484 9.1647 5.21322 9.48539 4.92584C9.80629 4.63827 10.193 4.40515 10.6259 4.24446ZM17.0652 5.06982C17.2086 5.38007 17.3175 5.70264 17.3905 6.03259H21C21.5523 6.03259 22 6.48031 22 7.03259C22 7.58488 21.5523 8.03259 21 8.03259H20V12.1758C20 13.8447 19.7652 15.5051 19.3026 17.1077C18.595 19.5589 16.5556 21.391 14.0483 21.8147L13.8906 21.8414C12.6389 22.0529 11.361 22.0529 10.1094 21.8414L9.95164 21.8147C7.4444 21.391 5.40498 19.5588 4.69738 17.1076C4.23478 15.5051 4 13.8447 4 12.1759V8.03259H3C2.44772 8.03259 2 7.58488 2 7.03259C2 6.48031 2.44772 6.03259 3 6.03259H6.60947C6.68245 5.70264 6.79141 5.38007 6.93482 5.06982C7.22045 4.45186 7.63561 3.89794 8.15065 3.43639C8.66547 2.97504 9.27089 2.61409 9.92993 2.36946C10.5889 2.12485 11.2921 2 12 2C12.7079 2 13.4111 2.12485 14.0701 2.36946C14.7291 2.61409 15.3345 2.97504 15.8494 3.4364C16.3644 3.89794 16.7795 4.45186 17.0652 5.06982ZM6 12.1759V8.03259H18V12.1758C18 13.6571 17.7916 15.1308 17.3811 16.5529C16.8846 18.2727 15.4575 19.5482 13.7151 19.8427L13.5573 19.8693C12.5263 20.0436 11.4737 20.0436 10.4426 19.8693L10.2849 19.8427C8.5425 19.5482 7.11537 18.2727 6.61892 16.5529C6.2084 15.1308 6 13.6571 6 12.1759ZM11 12C11 11.4477 10.5523 11 10 11C9.44772 11 9 11.4477 9 12V16C9 16.5523 9.44772 17 10 17C10.5523 17 11 16.5523 11 16V12ZM15 12C15 11.4477 14.5523 11 14 11C13.4477 11 13 11.4477 13 12V16C13 16.5523 13.4477 17 14 17C14.5523 17 15 16.5523 15 16V12Z" fill="#091B3D" fill-opacity="0.4"/>
</svg>
