<svg width="24" height="24" viewBox="0 0 24 24" fill="none" xmlns="http://www.w3.org/2000/svg">
<path fill-rule="evenodd" clip-rule="evenodd" d="M15.7936 2.38046L16.0054 2.32346C16.8646 2.12191 17.7555 2.0963 18.6242 2.2478L18.9946 2.32346C20.238 2.61512 21.2321 3.54343 21.6196 4.79362L21.6766 5.00551C21.8781 5.8647 21.9037 6.75545 21.7469 7.65256L21.6766 7.99457C21.385 9.23796 20.4566 10.2321 19.2064 10.6196L18.9946 10.6766C18.1354 10.8781 17.2446 10.9037 16.3474 10.7469L16.0054 10.6766C14.7621 10.3849 13.7679 9.45662 13.3804 8.20643L13.3234 7.99453C13.0929 7.01153 13.0929 5.98851 13.3234 5.00547C13.6151 3.76208 14.5434 2.76796 15.7936 2.38046ZM18.566 4.27679L18.2807 4.21806C17.6774 4.11287 17.0588 4.13065 16.4964 4.26194L16.3527 4.3004C15.8127 4.46806 15.4001 4.90983 15.2706 5.46213C15.1105 6.14479 15.1105 6.85525 15.2619 7.50366L15.3004 7.64737C15.468 8.18734 15.9098 8.59987 16.434 8.72325L16.7194 8.78198C17.3226 8.88718 17.9412 8.86939 18.5036 8.7381L18.6473 8.69964C19.1874 8.53198 19.5999 8.09022 19.7232 7.56612L19.782 7.28072C19.8871 6.67741 19.8693 6.05881 19.7381 5.49638L19.6996 5.35268C19.532 4.8127 19.0902 4.40018 18.566 4.27679ZM5.00544 2.32346L4.7936 2.38046C3.5434 2.76796 2.61511 3.76207 2.32345 5.00546C2.09287 5.98849 2.09287 7.01155 2.32345 7.99459L2.38045 8.20644C2.76795 9.45663 3.76206 10.3849 5.00545 10.6766L5.34742 10.7469C6.24457 10.9037 7.13536 10.8781 7.99459 10.6766L8.20643 10.6196C9.45663 10.2321 10.3849 9.23798 10.6766 7.99459L10.7469 7.65262C10.9037 6.75547 10.8781 5.86467 10.6766 5.00545L10.6196 4.7936C10.2321 3.54341 9.23797 2.61511 7.99458 2.32346L7.62423 2.2478C6.75546 2.0963 5.86467 2.12191 5.00544 2.32346ZM7.28066 4.21806L7.56605 4.2768C8.09022 4.40018 8.53198 4.81269 8.69963 5.35269L8.73809 5.4964C8.86939 6.05884 8.88717 6.6774 8.78197 7.28067L8.72324 7.56606C8.59986 8.09023 8.18735 8.53199 7.64735 8.69964L7.50364 8.7381C6.9412 8.8694 6.32264 8.88718 5.71937 8.78198L5.43398 8.72325C4.90981 8.59987 4.46805 8.18736 4.3004 7.64736L4.26194 7.50365C4.11048 6.85523 4.11048 6.14481 4.2706 5.46219C4.40017 4.90982 4.81268 4.46806 5.35268 4.3004L5.49639 4.26194C6.05883 4.13065 6.67739 4.11287 7.28066 4.21806ZM5.00551 13.3234L4.79361 13.3804C3.54342 13.7679 2.61511 14.7621 2.32345 16.0055C2.09287 16.9885 2.09287 18.0116 2.32345 18.9946L2.38046 19.2064C2.76795 20.4566 3.76208 21.385 5.00547 21.6766L5.34748 21.7469C6.24459 21.9037 7.13534 21.8781 7.99452 21.6766L8.20642 21.6196C9.45661 21.2321 10.3849 20.238 10.6766 18.9946L10.7469 18.6526C10.9037 17.7555 10.8781 16.8646 10.6766 16.0054L10.6196 15.7936C10.2321 14.5434 9.23795 13.6151 7.99456 13.3234L7.62418 13.2478C6.75545 13.0964 5.8647 13.122 5.00551 13.3234ZM7.28071 15.2181L7.56611 15.2768C8.09021 15.4002 8.53198 15.8127 8.69963 16.3527L8.73809 16.4964C8.86939 17.0588 8.88717 17.6774 8.78197 18.2807L8.72324 18.5661C8.59986 19.0902 8.18734 19.532 7.64736 19.6997L7.50366 19.7381C6.94123 19.8694 6.32262 19.8871 5.71932 19.782L5.43392 19.7232C4.90982 19.5999 4.46806 19.1874 4.3004 18.6474L4.26194 18.5036C4.11048 17.8553 4.11048 17.1448 4.2706 16.4622C4.40017 15.9098 4.81269 15.468 5.35267 15.3004L5.49638 15.2619C6.0588 15.1307 6.67741 15.1129 7.28071 15.2181ZM16.0055 13.3234L15.7936 13.3804C14.5434 13.7679 13.6151 14.7621 13.3234 16.0055C13.0929 16.9885 13.0929 18.0116 13.3234 18.9945L13.3804 19.2064C13.7679 20.4566 14.7621 21.385 16.0055 21.6766L16.3475 21.7469C17.2446 21.9037 18.1354 21.8781 18.9945 21.6766L19.2064 21.6196C20.4566 21.2321 21.385 20.238 21.6766 18.9946L21.7469 18.6526C21.9037 17.7555 21.8781 16.8647 21.6766 16.0055L21.6196 15.7936C21.2321 14.5434 20.238 13.6151 18.9946 13.3234L18.6242 13.2478C17.7555 13.0964 16.8647 13.122 16.0055 13.3234ZM18.2807 15.2181L18.5661 15.2768C19.0902 15.4002 19.532 15.8127 19.6996 16.3527L19.7381 16.4964C19.8693 17.0588 19.8871 17.6774 19.782 18.2807L19.7232 18.5661C19.5999 19.0902 19.1873 19.532 18.6474 19.6997L18.5037 19.7381C17.9413 19.8694 17.3226 19.8871 16.7193 19.782L16.4339 19.7232C15.9098 19.5999 15.468 19.1874 15.3004 18.6474L15.2619 18.5037C15.1105 17.8553 15.1105 17.1448 15.2706 16.4621C15.4001 15.9098 15.8127 15.468 16.3527 15.3004L16.4964 15.2619C17.0588 15.1307 17.6774 15.1129 18.2807 15.2181Z" fill="#091B3D" fill-opacity="0.4"/>
</svg>
