<svg width="55" height="55" viewBox="0 0 55 55" fill="none" xmlns="http://www.w3.org/2000/svg">
<path fill-rule="evenodd" clip-rule="evenodd" d="M19.7396 28.9088L14.6949 22.3392L22.63 19.9953L27.3067 13.1577L31.9834 19.9953L39.9184 22.3392L34.8737 28.9088L35.101 37.1949L27.3067 34.4177L19.5123 37.1949L19.7396 28.9088Z" fill="#F5B544"/>
<path fill-rule="evenodd" clip-rule="evenodd" d="M51.5044 31.4014L54.542 23.525C54.6686 23.1969 54.6252 22.8276 54.4263 22.5377C54.2274 22.2478 53.8984 22.0745 53.5468 22.0745H48.4255C48.9896 21.3151 49.1517 20.3292 48.8586 19.4274C48.5609 18.5118 47.8323 17.8024 46.9099 17.5299L36.0906 14.3342L29.7137 5.01085C29.1695 4.21533 28.2698 3.74023 27.3068 3.74023C26.3438 3.74023 25.444 4.21522 24.8998 5.01085L18.523 14.3342L7.70368 17.5299C6.78134 17.8024 6.0527 18.5118 5.75499 19.4274C5.46187 20.3292 5.624 21.3152 6.18795 22.0745H1.06667C0.715098 22.0745 0.386031 22.2479 0.187098 22.5377C-0.0117286 22.8276 -0.055142 23.1969 0.0714714 23.525L3.10902 31.4014L0.0714714 39.2778C-0.055142 39.6059 -0.0117286 39.9752 0.187098 40.2651C0.386031 40.5551 0.715098 40.7283 1.06667 40.7283H12.8303L12.7853 42.3702C12.7588 43.3348 13.2089 44.2488 13.989 44.8152C14.7676 45.3806 15.7733 45.5252 16.6797 45.2024L23.3585 42.8227L21.248 48.7397H18.8358C18.2468 48.7397 17.7692 49.2172 17.7692 49.8064C17.7692 50.3955 18.2468 50.873 18.8358 50.873H35.7775C36.3665 50.873 36.8442 50.3955 36.8442 49.8064C36.8442 49.2172 36.3665 48.7397 35.7775 48.7397H33.3654L31.2561 42.8231L37.9338 45.2024C38.2523 45.3159 38.583 45.3716 38.9119 45.3716C39.5188 45.3716 40.1194 45.1818 40.6244 44.8152C41.4046 44.2488 41.8546 43.3348 41.8282 42.3702L41.7831 40.7283H53.5467C53.8982 40.7283 54.2273 40.555 54.4262 40.2651C54.6251 39.9752 54.6685 39.6059 54.5419 39.2778L51.5044 31.4014ZM49.6293 30.3347H42.0832L46.7878 24.2079H51.9922L49.6293 30.3347ZM7.8256 24.2079L12.5302 30.3347H4.98411L2.62134 24.2079H7.8256ZM2.62123 38.595L4.984 32.4681H13.0569L12.8888 38.595H2.62123ZM31.1006 48.7397H23.5129L25.9532 41.8981L27.3067 41.4159L28.6617 41.8986L31.1006 48.7397ZM39.3711 43.0889C39.2707 43.1618 39 43.3175 38.6498 43.1929L27.6648 39.2788C27.549 39.2375 27.4278 39.2169 27.3068 39.2169C27.1856 39.2169 27.0645 39.2375 26.9488 39.2788L15.9637 43.1929C15.6138 43.3176 15.3427 43.1618 15.2425 43.0889C15.1414 43.0155 14.9075 42.8044 14.9179 42.4288L15.2384 30.7508C15.2451 30.5059 15.1674 30.2662 15.0182 30.0719L7.90838 20.8128C7.67968 20.5151 7.74507 20.206 7.78379 20.087C7.8223 19.9685 7.95051 19.6815 8.30795 19.5759L19.4912 16.2726C19.7266 16.2031 19.9309 16.0545 20.0694 15.8518L26.6606 6.21522C26.8716 5.90685 27.1827 5.87357 27.3068 5.87357C27.4308 5.87357 27.742 5.90685 27.953 6.21522L34.5441 15.8518C34.6827 16.0544 34.8869 16.2031 35.1224 16.2726L46.3056 19.5759C46.663 19.6815 46.7913 19.9685 46.8298 20.087C46.8685 20.206 46.9339 20.5152 46.7052 20.8129L39.5955 30.0719C39.4464 30.2662 39.3685 30.5059 39.3754 30.7508L39.6959 42.4288C39.7059 42.8044 39.4721 43.0155 39.3711 43.0889ZM41.7246 38.595L41.5565 32.4681H49.6293L51.9921 38.595H41.7246Z" fill="#2772F0"/>
<path fill-rule="evenodd" clip-rule="evenodd" d="M29.1794 24.2674C29.1794 23.6782 28.7018 23.2007 28.1127 23.2007H26.5007C25.9117 23.2007 25.434 23.6782 25.434 24.2674C25.434 24.7666 25.777 25.1855 26.2401 25.3019V27.7038C25.7771 27.8201 25.434 28.2392 25.434 28.7384C25.434 29.3275 25.9117 29.8051 26.5007 29.8051H28.1127C28.7018 29.8051 29.1794 29.3275 29.1794 28.7384C29.1794 28.2392 28.8365 27.8202 28.3733 27.7038V25.3019C28.8365 25.1855 29.1794 24.7666 29.1794 24.2674Z" fill="#2772F0"/>
</svg>
