<svg width="20" height="20" viewBox="0 0 20 20" fill="none" xmlns="http://www.w3.org/2000/svg">
<path fill-rule="evenodd" clip-rule="evenodd" d="M8 0C5.20055 0 2.91669 2.2023 2.91669 4.9375C2.91669 7.6727 5.20055 9.875 8 9.875C10.7995 9.875 13.0834 7.67271 13.0834 4.9375C13.0834 2.20229 10.7995 0 8 0ZM8 2C9.71089 2 11.0834 3.32347 11.0834 4.9375C11.0834 6.55153 9.71089 7.875 8 7.875C6.28917 7.875 4.91669 6.55153 4.91669 4.9375C4.91669 3.32347 6.28917 2 8 2ZM17 7C17.5128 7 17.9355 7.38604 17.9933 7.88338L18 8V9H19C19.5523 9 20 9.44771 20 10C20 10.5128 19.614 10.9355 19.1166 10.9933L19 11H18V12C18 12.5523 17.5523 13 17 13C16.4872 13 16.0645 12.614 16.0067 12.1166L16 12V11H15C14.4477 11 14 10.5523 14 10C14 9.48716 14.386 9.06449 14.8834 9.00673L15 9H16V8C16 7.44772 16.4477 7 17 7ZM4.84117 11.2761L5.04916 11.2417C7.00397 10.9195 8.99605 10.9195 10.9509 11.2417L11.1587 11.276C13.9541 11.7369 16 14.2145 16 17.1115C16 18.6996 14.7412 20 13.1719 20H2.82813C1.25879 20 0 18.6996 0 17.1115C0 14.2145 2.04596 11.7369 4.84117 11.2761ZM10.8331 13.2493L10.6255 13.2151C8.88615 12.9283 7.11387 12.9283 5.37469 13.215L5.16671 13.2494C3.34867 13.5491 2 15.1823 2 17.1115C2 17.6094 2.37816 18 2.82813 18H13.1719C13.6218 18 14 17.6093 14 17.1115C14 15.1823 12.6513 13.5491 10.8331 13.2493Z" fill="#091B3D"/>
</svg>
